<svg xml:space="preserve" viewBox="0 0 100 100" y="0" x="0" xmlns="http://www.w3.org/2000/svg" id="圖層_1" version="1.1" style="margin: initial; display: block; shape-rendering: auto; background: rgba(255, 255, 255, 0);" preserveAspectRatio="xMidYMid" width="200" height="200"><g class="ldl-scale" style="transform-origin: 50% 50%; transform: rotate(0deg) scale(0.8, 0.8);"><g class="ldl-ani"><g class="ldl-layer"><g class="ldl-ani" style="transform-box: view-box; opacity: 1; transform-origin: 50px 80px; transform: matrix3d(1, 0, 0, 0, 0, 1, 0, 0, 0, 0, 1, 0, 0, 0, 0, 1); animation: 1s linear -1s infinite alternate forwards running animate;"><path fill="#666" d="M51 31.3h-9.8V46h25.2l-6.9-10.2c-1.7-2.7-5-4.5-8.5-4.5z" style="stroke-width: 1; fill: rgb(241, 241, 241);"></path></g></g><g class="ldl-layer"><g class="ldl-ani" style="transform-box: view-box; opacity: 1; transform-origin: 50px 80px; transform: matrix3d(1, 0, 0, 0, 0, 1, 0, 0, 0, 0, 1, 0, 0, 0, 0, 1); animation: 1s linear -1s infinite alternate forwards running animate;"><path fill="#666" d="M32.4 31.3c-3.6 0-6.7 2.2-7.6 5.4L21 46.1h17.1V31.3h-5.7z" style="stroke-width: 1; fill: rgb(241, 241, 241);"></path></g></g><g class="ldl-layer"><g class="ldl-ani" style="transform-box: view-box; opacity: 1; transform-origin: 50px 80px; transform: matrix3d(1, 0, 0, 0, 0, 1, 0, 0, 0, 0, 1, 0, 0, 0, 0, 1); animation: 1s linear -1s infinite alternate forwards running animate;"><path fill="#abbd81" d="M88.1 55.1l-.8-3.2c-.1-.4-.2-.7-.3-1-1.1-3.1-4.1-5.2-7.4-5.2H15.5c-3.1 0-5.7 2.2-6.2 5.2 0 .1-.1.2-.1.3l-.6 3.9-.8 5.4c0 2.2 1.8 4.1 4.1 4.1h78.6l-2.4-9.5z" style="stroke-width: 1; fill: rgb(247, 197, 133);"></path></g></g><g class="ldl-layer"><g class="ldl-ani" style="transform-box: view-box; opacity: 1; transform-origin: 50px 80px; transform: matrix3d(1, 0, 0, 0, 0, 1, 0, 0, 0, 0, 1, 0, 0, 0, 0, 1); animation: 1s linear -1s infinite alternate forwards running animate;"><path fill="#e15b64" d="M13.5 50.8h-4c-.3 0-.5.2-.5.4l-.5 3.4c0 .3.2.5.4.5h4.6c1.1 0 1.9-.8 1.9-1.9v-.5c0-1-.9-1.9-1.9-1.9z" style="stroke-width: 1; fill: rgb(225, 91, 100);"></path></g></g><g class="ldl-layer"><g class="ldl-ani" style="transform-box: view-box; opacity: 1; transform-origin: 50px 80px; transform: matrix3d(1, 0, 0, 0, 0, 1, 0, 0, 0, 0, 1, 0, 0, 0, 0, 1); animation: 1s linear -1s infinite alternate forwards running animate;"><path fill="#e0e0e0" d="M87.6 51.3c-.1-.3-.3-.5-.6-.5h-3c-.8 0-1.4.6-1.4 1.3v1.6c0 .7.6 1.3 1.4 1.3h3.8c.4 0 .8-.4.6-.8l-.8-2.9z" style="stroke-width: 1; fill: rgb(237, 237, 237);"></path></g></g><g class="ldl-layer"><g class="ldl-ani" style="transform-box: view-box; opacity: 1; transform-origin: 50px 80px; transform: matrix3d(1, 0, 0, 0, 0, 1, 0, 0, 0, 0, 1, 0, 0, 0, 0, 1); animation: 1s linear -1s infinite alternate forwards running animate;"><path fill="#849b87" d="M90.3 60.1H7.9s-.4 0-.4.4c0 2.4 1.7 4.1 4.2 4.1h78.5c1.2 0 2.2-1 2.2-2.2.1-1.3-.9-2.3-2.1-2.3z" style="stroke-width: 1; fill: rgb(88, 120, 165);"></path></g></g><g class="ldl-layer"><g class="ldl-ani"><g><g class="ldl-layer"><g class="ldl-ani" style="transform-box: view-box; opacity: 1; transform-origin: 50px 80px; transform: matrix3d(1, 0, 0, 0, 0, 1, 0, 0, 0, 0, 1, 0, 0, 0, 0, 1); animation: 1s linear -1s infinite alternate forwards running animate;"><circle fill="#fff" r="7.5" cy="62.4" cx="23.9" style="stroke-width: 1; fill: rgba(167, 167, 167, 0.965);"></circle></g></g><g class="ldl-layer"><g class="ldl-ani" style="transform-box: view-box; opacity: 1; transform-origin: 50px 80px; transform: matrix3d(1, 0, 0, 0, 0, 1, 0, 0, 0, 0, 1, 0, 0, 0, 0, 1); animation: 1s linear -1s infinite alternate forwards running animate;"><path fill="#333" d="M23.9 56.4c3.3 0 6 2.7 6 6s-2.7 6-6 6-6-2.7-6-6 2.7-6 6-6m0-3c-5 0-9 4-9 9s4 9 9 9 9-4 9-9c0-4.9-4.1-9-9-9z" style="stroke-width: 1; fill: rgb(115, 113, 113);"></path></g></g></g></g></g><g class="ldl-layer"><g class="ldl-ani"><g><g class="ldl-layer"><g class="ldl-ani" style="transform-box: view-box; opacity: 1; transform-origin: 50px 80px; transform: matrix3d(1, 0, 0, 0, 0, 1, 0, 0, 0, 0, 1, 0, 0, 0, 0, 1); animation: 1s linear -1s infinite alternate forwards running animate;"><circle fill="#e6e6e6" r="4" cy="62.4" cx="23.9" style="stroke-width: 1; fill: rgb(224, 224, 224);"></circle></g></g></g></g></g><g class="ldl-layer"><g class="ldl-ani"><g><g class="ldl-layer"><g class="ldl-ani" style="transform-box: view-box; opacity: 1; transform-origin: 50px 80px; transform: matrix3d(1, 0, 0, 0, 0, 1, 0, 0, 0, 0, 1, 0, 0, 0, 0, 1); animation: 1s linear -1s infinite alternate forwards running animate;"><circle fill="#fff" r="7.5" cy="62.4" cx="71.5" style="stroke-width: 1; fill: rgba(167, 167, 167, 0.965);"></circle></g></g><g class="ldl-layer"><g class="ldl-ani" style="transform-box: view-box; opacity: 1; transform-origin: 50px 80px; transform: matrix3d(1, 0, 0, 0, 0, 1, 0, 0, 0, 0, 1, 0, 0, 0, 0, 1); animation: 1s linear -1s infinite alternate forwards running animate;"><path fill="#333" d="M71.5 56.4c3.3 0 6 2.7 6 6s-2.7 6-6 6-6-2.7-6-6 2.7-6 6-6m0-3c-5 0-9 4-9 9s4 9 9 9 9-4 9-9c0-4.9-4-9-9-9z" style="stroke-width: 1; fill: rgb(115, 113, 113);"></path></g></g></g></g></g><g class="ldl-layer"><g class="ldl-ani"><g><g class="ldl-layer"><g class="ldl-ani" style="transform-box: view-box; opacity: 1; transform-origin: 50px 80px; transform: matrix3d(1, 0, 0, 0, 0, 1, 0, 0, 0, 0, 1, 0, 0, 0, 0, 1); animation: 1s linear -1s infinite alternate forwards running animate;"><circle fill="#e6e6e6" r="4" cy="62.4" cx="71.5" style="stroke-width: 1; fill: rgb(224, 224, 224);"></circle></g></g></g></g></g><g class="ldl-layer"><g class="ldl-ani" style="transform-box: view-box; opacity: 1; transform-origin: 50px 80px; transform: matrix3d(1, 0, 0, 0, 0, 1, 0, 0, 0, 0, 1, 0, 0, 0, 0, 1); animation: 1s linear -1s infinite alternate forwards running animate;"><path fill="#abbd81" d="M63.3 33.9c-2.1-3.3-5.9-5.4-10-5.4H29.1c-4.2 0-7.9 2.6-9 6.4L15.6 46h6l3.5-8.7c.8-3 3.7-5.1 7.1-5.1h5.4v13.7h4.5V32.3h9.2c3.3 0 6.3 1.6 7.9 4.2l6.4 9.5h6l-8.3-12.1z" style="stroke-width: 1; fill: rgb(247, 197, 133);"></path></g></g><g class="ldl-layer"><g class="ldl-ani" style="transform-box: view-box; opacity: 1; transform-origin: 50px 80px; transform: matrix3d(1, 0, 0, 0, 0, 1, 0, 0, 0, 0, 1, 0, 0, 0, 0, 1); animation: 1s linear -1s infinite alternate forwards running animate;"><path fill="#849b87" d="M58.1 57.1H38.2c-1 0-1.8-.8-1.8-1.8s.8-1.8 1.8-1.8h19.9c1 0 1.8.8 1.8 1.8 0 .9-.8 1.8-1.8 1.8z" style="stroke-width: 1; fill: rgb(88, 120, 165);"></path></g></g><metadata xmlns:d="https://loading.io/stock/">




</metadata></g></g><style type="text/css">@keyframes animate { 0.00% {transform: translate(0.00px,0.00px) rotate(0.00deg) scale(1.00, 1.00) skew(0deg, 0.00deg) ;opacity: 1.00;}2.00% {animation-timing-function: cubic-bezier(0.20,0.39,0.50,0.97);transform: translate(0.00px,-1.08px) rotate(0.00deg) ;}36.00% {animation-timing-function: cubic-bezier(0.50,0.03,0.80,0.61);transform: translate(0.00px,-10.00px) rotate(0.00deg) ;}72.00% {transform: translate(0.00px,-0.12px) rotate(0.00deg) ;}74.00% {animation-timing-function: cubic-bezier(0.24,0.43,0.48,0.91);transform: translate(0.00px,0.00px) rotate(0.00deg) scale(1.00, 0.95) ;}86.00% {animation-timing-function: cubic-bezier(0.53,0.08,0.77,0.57);transform: translate(0.00px,0.00px) rotate(0.00deg) scale(1.00, 0.80) ;}100.00% {animation-timing-function: cubic-bezier(0.53,0.08,0.77,0.57);transform: translate(0.00px,0.00px) rotate(0.00deg) scale(1.00, 1.00) ;} }</style><!-- [ldio] generated by https://loading.io --></svg>